<?xml version="1.0" encoding="utf-8"?>
<!-- Generator: Adobe Illustrator 23.1.1, SVG Export Plug-In . SVG Version: 6.00 Build 0)  -->
<svg version="1.1" id="Ebene_1" xmlns="http://www.w3.org/2000/svg" xmlns:xlink="http://www.w3.org/1999/xlink" x="0px" y="0px"
	 viewBox="0 0 425.3 425.3" style="enable-background:new 0 0 425.3 425.3;" xml:space="preserve">
<style type="text/css">
	.st0{fill:url(#SVGID_1_);}
	.st1{fill:url(#SVGID_2_);}
	.st2{fill:url(#SVGID_3_);}
	.st3{fill:none;stroke:#FFFFFF;stroke-width:6.5878;stroke-linecap:round;stroke-miterlimit:10;}
	.st4{fill:#FFFFFF;}
</style>
<g>
	<g>
		
			<linearGradient id="SVGID_1_" gradientUnits="userSpaceOnUse" x1="212.5862" y1="864.7239" x2="45.0138" y2="767.976" gradientTransform="matrix(1 0 0 1 0 -652)">
			<stop  offset="0" style="stop-color:#93D5F6"/>
			<stop  offset="4.882000e-02" style="stop-color:#68C8F3"/>
			<stop  offset="0.1021" style="stop-color:#2DBDEF"/>
			<stop  offset="0.1567" style="stop-color:#00B6ED"/>
			<stop  offset="0.2127" style="stop-color:#00B1EB"/>
			<stop  offset="0.2724" style="stop-color:#00B0EB"/>
			<stop  offset="0.8105" style="stop-color:#007BB2"/>
			<stop  offset="1" style="stop-color:#0075A2"/>
		</linearGradient>
		<polygon class="st0" points="45,309.5 212.6,212.7 212.6,19.2 209.2,21.2 45,116 		"/>
		
			<linearGradient id="SVGID_2_" gradientUnits="userSpaceOnUse" x1="254.5098" y1="888.8158" x2="338.3275" y2="743.6394" gradientTransform="matrix(1 0 0 1 -1.763484e-02 -652.0293)">
			<stop  offset="0" style="stop-color:#00B8EE"/>
			<stop  offset="0.2966" style="stop-color:#0090C4"/>
			<stop  offset="0.4713" style="stop-color:#0080B7"/>
			<stop  offset="0.6252" style="stop-color:#0071AA"/>
			<stop  offset="0.8006" style="stop-color:#006A9A"/>
			<stop  offset="0.8105" style="stop-color:#006999"/>
			<stop  offset="1" style="stop-color:#1E69AA"/>
		</linearGradient>
		<path class="st1" d="M329.4,86.5c-0.8-0.1-1.5-0.2-1.5-0.5v-0.4L212.6,19.1v193.5l167.6,96.7V115.8L329.4,86.5z"/>
		
			<linearGradient id="SVGID_3_" gradientUnits="userSpaceOnUse" x1="254.565" y1="888.6646" x2="170.635" y2="1034.0355" gradientTransform="matrix(1 0 0 1 0 -652)">
			<stop  offset="0" style="stop-color:#009FE3"/>
			<stop  offset="1.054398e-02" style="stop-color:#009FE3"/>
			<stop  offset="0.317" style="stop-color:#009FE3"/>
			<stop  offset="0.3997" style="stop-color:#0090CF"/>
			<stop  offset="0.5473" style="stop-color:#007BB1"/>
			<stop  offset="0.6744" style="stop-color:#006E9F"/>
			<stop  offset="0.7654" style="stop-color:#006999"/>
			<stop  offset="0.9753" style="stop-color:#1E69AA"/>
		</linearGradient>
		<polygon class="st2" points="45,309.5 212.6,212.6 380.2,309.2 212.8,406.1 		"/>
		<g>
			<polyline class="st3" points="357.4,132.5 357.4,296.1 213.1,381.3 69.1,296.1 69.1,125.7 183.8,59.1 			"/>
			<polyline class="st3" points="329,86.9 329,280.4 256.2,322.7 			"/>
			<polyline class="st3" points="269.8,52.7 269.8,246 213.3,278.8 			"/>
			<polyline class="st3" points="148.2,250.5 212.4,212.8 212.6,21.4 			"/>
			<polyline class="st3" points="241.1,70.1 241.1,229.1 123.1,298.8 			"/>
		</g>
		<circle class="st4" cx="131.4" cy="293.8" r="14"/>
		<polyline class="st3" points="300.2,96.5 300.2,263.1 182.2,332.9 		"/>
		<circle class="st4" cx="186.9" cy="330.7" r="14"/>
		<circle class="st4" cx="257.4" cy="322.7" r="14"/>
		<circle class="st4" cx="212.8" cy="278.8" r="14"/>
		<circle class="st4" cx="147.3" cy="249.4" r="14"/>
	</g>
</g>
<g id="solutions">
</g>
</svg>
