<?xml version="1.0" encoding="utf-8"?>
<!-- Generator: Adobe Illustrator 23.1.1, SVG Export Plug-In . SVG Version: 6.00 Build 0)  -->
<svg version="1.1" xmlns="http://www.w3.org/2000/svg" xmlns:xlink="http://www.w3.org/1999/xlink" x="0px" y="0px"
	 viewBox="0 0 425.3 425.3" style="enable-background:new 0 0 425.3 425.3;" xml:space="preserve">
<style type="text/css">
	.st0{display:none;}
	.st1{fill:#FFFFFF;stroke:#FFFFFF;stroke-width:1.8395;stroke-miterlimit:10;}
	.st2{fill:none;stroke:#FFFFFF;stroke-width:9.1977;stroke-miterlimit:10;}
</style>
<g id="Ebene_1">
	<path class="st0" d="M40.6,113.3l172.1-99.4v198.7L40.6,312V113.3z M212.7,212.4l172.1,99.4l0-198.7L212.7,13.7L212.7,212.4z
		 M212.9,411.2c0,0,172-99.6,172-99.6l-172.2-99.2L40.7,312C40.7,312,212.9,411.2,212.9,411.2z"/>
	<g>
		<polygon class="st1" points="209.2,14.8 115.7,68.9 209.2,14.9 		"/>
		<polygon class="st1" points="39.8,312.5 39.7,112.9 39.6,112.9 39.7,312.6 212.8,412.5 385.6,312.5 385.6,312.5 212.9,412.4 		"/>
		<path class="st1" d="M186.2,319.2c-8.5,0-15.5,6.9-15.5,15.5c0,8.5,6.9,15.5,15.5,15.5c8.5,0,15.5-6.9,15.5-15.5
			c0-1.8-0.3-3.6-0.9-5.2l105.5-62.3l0.5-0.3V92.8c0-1.9-1.6-3.5-3.5-3.5c-1.9,0-3.5,1.6-3.5,3.5v170.1l-102.7,60.7
			C194.1,320.9,190.4,319.2,186.2,319.2z"/>
		<polygon class="st1" points="39.7,112.8 39.7,112.9 115.7,68.9 		"/>
		<path class="st1" d="M362.1,126.4c-1.9,0-3.5,1.6-3.5,3.5v166.9l-145.3,85.9L67.9,296.9V125l116.7-67.7c0.8-0.5,1.4-1.2,1.6-2.1
			s0.1-1.9-0.4-2.7c-0.5-0.8-1.2-1.4-2.1-1.6c-0.9-0.2-1.9-0.1-2.7,0.4L62.7,119.9l-1.8,1v180l151.9,89.7l0.5,0.3l151.9-89.8
			l0.5-0.3V130C365.6,128,364.1,126.4,362.1,126.4z"/>
		<path class="st1" d="M113.4,296.5c0,8.5,6.9,15.5,15.5,15.5s15.5-6.9,15.5-15.5c0-1.6-0.2-3.1-0.7-4.5l101.5-60l0.5-0.3V65.5
			c0-1.9-1.6-3.5-3.5-3.5c-1.9,0-3.5,1.6-3.5,3.5v162.2l-98.5,58.2c-2.8-3-6.8-4.9-11.2-4.9C120.3,281,113.4,288,113.4,296.5z"/>
		<path class="st1" d="M385.7,112.6l-173-99.8l-3.6,2.1L209,210.4l-51.5,30.7c-2.8-3.6-7.2-5.8-12.1-5.8c-8.5,0-15.5,6.9-15.5,15.5
			s6.9,15.5,15.5,15.5c8.5,0,15.5-6.9,15.5-15.5c0-1.1-0.1-2.2-0.3-3.2l55-32.8l0.5-0.3l0.2-199.4l52.3,30.2
			c-0.2,0.4-0.3,0.9-0.3,1.4v198l-44,26c-2.8-3.1-6.9-5-11.4-5c-8.5,0-15.5,6.9-15.5,15.5c0,8.5,6.9,15.5,15.5,15.5
			s15.5-6.9,15.5-15.5c0-1.5-0.2-2.9-0.6-4.3l47-27.8l0.5-0.3V49l54.5,31.5c-0.3,0.5-0.5,1.1-0.5,1.8V280l-59.6,35.3
			c-2.8-2.7-6.6-4.3-10.7-4.3c-8.5,0-15.5,6.9-15.5,15.5c0,8.5,6.9,15.5,15.5,15.5c8.5,0,15.5-6.9,15.5-15.5c0-1.8-0.3-3.6-0.9-5.2
			l62.3-36.9l0.5-0.3V84.3l49.3,28.5l0,199.7l0.1-0.1L385.7,112.6z"/>
	</g>
</g>
<g id="solutions">
	<polygon class="st2" points="212.9,412.4 39.7,312.5 39.7,112.9 212.7,12.9 385.7,112.7 385.7,312.5 	"/>
</g>
</svg>
