<?xml version="1.0" encoding="utf-8"?>
<!-- Generator: Adobe Illustrator 23.1.1, SVG Export Plug-In . SVG Version: 6.00 Build 0)  -->
<svg version="1.1" xmlns="http://www.w3.org/2000/svg" xmlns:xlink="http://www.w3.org/1999/xlink" x="0px" y="0px"
	 viewBox="0 0 425.3 425.3" style="enable-background:new 0 0 425.3 425.3;" xml:space="preserve">
<style type="text/css">
	.st0{fill:#010202;}
	.st1{fill:url(#SVGID_1_);}
	.st2{fill:none;stroke:#FFFFFF;stroke-width:3;stroke-miterlimit:10;}
	.st3{fill:url(#SVGID_2_);}
	.st4{fill:url(#SVGID_3_);}
	.st5{fill:url(#SVGID_4_);}
	.st6{fill:url(#SVGID_5_);}
	.st7{fill:url(#SVGID_6_);}
	.st8{fill:url(#SVGID_7_);}
	.st9{fill:url(#SVGID_8_);}
	.st10{fill:url(#SVGID_9_);}
	.st11{fill:none;stroke:#FFFFFF;stroke-width:3;stroke-linecap:round;stroke-miterlimit:10;}
	.st12{fill:url(#SVGID_10_);}
	.st13{fill:url(#SVGID_11_);}
	.st14{fill:url(#SVGID_12_);}
	.st15{fill:url(#SVGID_13_);}
	.st16{fill:url(#SVGID_14_);}
	.st17{fill:url(#SVGID_15_);}
	.st18{fill:url(#SVGID_16_);}
	.st19{fill:url(#SVGID_17_);}
	.st20{fill:url(#SVGID_18_);}
	.st21{fill:url(#SVGID_19_);}
	.st22{fill:url(#SVGID_20_);}
	.st23{fill:url(#SVGID_21_);}
	.st24{fill:url(#SVGID_22_);}
	.st25{fill:url(#SVGID_23_);}
	.st26{fill:url(#SVGID_24_);}
	.st27{fill:url(#SVGID_25_);}
	.st28{fill:url(#SVGID_26_);}
	.st29{fill:url(#SVGID_27_);}
	.st30{fill:#54C2E9;}
	.st31{fill:#02AEDD;}
	.st32{fill:#048FB5;}
	.st33{fill:url(#SVGID_28_);}
	.st34{fill:url(#SVGID_29_);}
	.st35{fill:url(#SVGID_30_);}
	.st36{fill:url(#SVGID_31_);}
	.st37{fill:url(#SVGID_32_);}
	.st38{fill:url(#SVGID_33_);}
	.st39{fill:#FFFFFF;}
	.st40{fill:url(#SVGID_34_);}
	.st41{fill:url(#SVGID_35_);}
	.st42{fill:url(#SVGID_36_);}
	.st43{fill:url(#SVGID_37_);}
	.st44{fill:url(#SVGID_38_);}
	.st45{fill:url(#SVGID_39_);}
	.st46{fill:#79CBE9;}
	.st47{fill:#26BCE9;}
	.st48{fill:#02738C;}
	.st49{fill:url(#SVGID_40_);}
	.st50{fill:url(#SVGID_41_);}
	.st51{fill:url(#SVGID_42_);}
	.st52{fill:url(#SVGID_43_);}
	.st53{fill:url(#SVGID_44_);}
	.st54{fill:url(#SVGID_45_);}
	.st55{fill:url(#SVGID_46_);}
	.st56{fill:url(#SVGID_47_);}
	.st57{fill:url(#SVGID_48_);}
	.st58{fill:url(#SVGID_49_);}
	.st59{fill:url(#SVGID_50_);}
	.st60{fill:url(#SVGID_51_);}
	.st61{fill:url(#SVGID_52_);}
	.st62{fill:url(#SVGID_53_);}
	.st63{fill:url(#SVGID_54_);}
	.st64{fill:url(#SVGID_55_);}
	.st65{fill:url(#SVGID_56_);}
	.st66{fill:url(#SVGID_57_);}
	.st67{fill:url(#SVGID_58_);}
	.st68{fill:url(#SVGID_59_);}
	.st69{fill:url(#SVGID_60_);}
	.st70{fill:#075577;stroke:#000000;stroke-width:3;stroke-miterlimit:10;}
	.st71{fill:#4A4A49;}
	.st72{fill:#075577;}
	.st73{fill:url(#SVGID_61_);}
	.st74{fill:url(#SVGID_62_);}
	.st75{fill:url(#SVGID_63_);}
	.st76{fill:url(#SVGID_64_);}
	.st77{fill:url(#SVGID_65_);}
	.st78{fill:url(#SVGID_66_);}
	.st79{fill:none;stroke:#FFFFFF;stroke-width:2.3;stroke-linecap:round;stroke-miterlimit:10;}
	.st80{fill:url(#SVGID_67_);}
	.st81{fill:url(#SVGID_68_);}
	.st82{fill:url(#SVGID_69_);}
	.st83{fill:url(#SVGID_70_);}
	.st84{fill:url(#SVGID_71_);}
	.st85{fill:url(#SVGID_72_);}
	.st86{fill:url(#SVGID_73_);}
	.st87{fill:url(#SVGID_74_);}
	.st88{fill:url(#SVGID_75_);}
	.st89{fill:url(#SVGID_76_);}
	.st90{fill:url(#SVGID_77_);}
	.st91{fill:url(#SVGID_78_);}
	.st92{fill:none;stroke:#FFFFFF;stroke-width:5;stroke-linecap:round;stroke-miterlimit:10;}
	.st93{display:none;}
	.st94{fill:#0492C2;}
	.st95{fill:url(#SVGID_79_);}
	.st96{fill:url(#SVGID_80_);}
	.st97{fill:url(#SVGID_81_);}
	.st98{fill:url(#SVGID_82_);}
	.st99{fill:url(#SVGID_83_);}
	.st100{fill:url(#SVGID_84_);}
	.st101{fill:url(#SVGID_85_);}
	.st102{fill:url(#SVGID_86_);}
	.st103{fill:url(#SVGID_87_);}
	.st104{fill:#FFFFFF;stroke:#FFFFFF;stroke-miterlimit:10;}
	.st105{fill:url(#SVGID_88_);}
	.st106{fill:url(#SVGID_89_);}
	.st107{fill:url(#SVGID_90_);}
	.st108{fill:none;stroke:#FFFFFF;stroke-width:6.5878;stroke-linecap:round;stroke-miterlimit:10;}
</style>
<g id="Ebene_1">
	<path class="st39" d="M342.1,77.3v209l-0.5,0.3l-65.2,38.6c0.6,1.7,1,3.5,1,5.5c0,8.9-7.3,16.2-16.2,16.2
		c-8.9,0-16.2-7.3-16.2-16.2c0-8.9,7.3-16.2,16.2-16.2c4.4,0,8.3,1.7,11.2,4.5l62.4-36.9V75.2c0-0.7,0.2-1.3,0.5-1.9l-57-32.9v208.9
		l-0.5,0.3l-49.2,29.1c0.4,1.4,0.7,3,0.7,4.5c0,8.9-7.3,16.2-16.2,16.2s-16.2-7.3-16.2-16.2c0-8.9,7.3-16.2,16.2-16.2
		c4.7,0,8.9,2,11.9,5.3l46-27.2V37.8c0-0.5,0.1-1,0.3-1.5L216.4,4.7l-0.2,208.7l-0.5,0.3L158.1,248c0.2,1.1,0.4,2.2,0.4,3.4
		c0,8.9-7.3,16.2-16.2,16.2s-16.2-7.3-16.2-16.2c0-8.9,7.3-16.2,16.2-16.2c5.1,0,9.7,2.4,12.7,6.1l53.9-32.1L209,4.6L31.7,107.3
		l0,208.9l181.2,104.5l180.8-104.6l0-209.1L342.1,77.3z M303.7,264.2v-178c0-2,1.7-3.7,3.7-3.7s3.7,1.7,3.7,3.7v182.2l-0.5,0.3
		l-110.4,65.2c0.6,1.7,1,3.5,1,5.4c0,8.9-7.3,16.2-16.2,16.2c-8.9,0-16.2-7.3-16.2-16.2s7.3-16.2,16.2-16.2c4.4,0,8.3,1.7,11.2,4.6
		L303.7,264.2z M136.8,288.3l103.1-60.9V57.7c0-2,1.7-3.7,3.7-3.7c2,0,3.7,1.7,3.7,3.7v173.9l-0.5,0.3l-106.2,62.8
		c0.5,1.5,0.7,3.1,0.7,4.7c0,8.9-7.3,16.2-16.2,16.2s-16.2-7.3-16.2-16.2c0-8.9,7.3-16.2,16.2-16.2
		C129.7,283.2,133.8,285.2,136.8,288.3z M372.8,304l-0.5,0.3l-158.9,93.9l-0.5-0.3L53.9,304V115.6l1.8-1.1l123.9-71.9
		c0.9-0.5,1.8-0.6,2.8-0.4c1,0.3,1.7,0.9,2.2,1.7c0.5,0.9,0.6,1.8,0.4,2.8c-0.3,1-0.9,1.7-1.7,2.2L61.3,119.9v179.9l152.1,89.9
		l152.1-89.9V125.1c0-2,1.7-3.7,3.7-3.7s3.7,1.7,3.7,3.7V304z"/>
</g>
<g id="solutions">
</g>
</svg>
